<svg width="490" height="490" viewBox="0 0 490 490" fill="none" xmlns="http://www.w3.org/2000/svg">
<path d="M248.858 490C115.676 490 7.71654 382.041 7.71654 248.858C7.71654 115.676 115.676 7.71654 248.858 7.71654C382.041 7.71654 490 115.676 490 248.858C490 382.041 382.041 490 248.858 490ZM248.858 441.772C300.022 441.772 349.09 421.447 385.269 385.269C421.447 349.09 441.772 300.022 441.772 248.858C441.772 197.694 421.447 148.626 385.269 112.448C349.09 76.2696 300.022 55.9449 248.858 55.9449C197.694 55.9449 148.626 76.2696 112.448 112.448C76.2696 148.626 55.9449 197.694 55.9449 248.858C55.9449 300.022 76.2696 349.09 112.448 385.269C148.626 421.447 197.694 441.772 248.858 441.772ZM224.744 267.957C212.05 262.417 201.651 252.675 195.296 240.369C188.94 228.064 187.015 213.945 189.844 200.387C192.674 186.829 200.086 174.659 210.833 165.924C221.581 157.188 235.008 152.419 248.858 152.419C262.708 152.419 276.136 157.188 286.883 165.924C297.631 174.659 305.042 186.829 307.872 200.387C310.702 213.945 308.777 228.064 302.421 240.369C296.065 252.675 285.666 262.417 272.972 267.957V345.315H224.744V267.957Z" fill="#6518F6"/>
<path d="M248.858 490C115.676 490 7.71654 382.041 7.71654 248.858C7.71654 115.676 115.676 7.71654 248.858 7.71654C382.041 7.71654 490 115.676 490 248.858C490 382.041 382.041 490 248.858 490ZM248.858 441.772C300.022 441.772 349.09 421.447 385.269 385.269C421.447 349.09 441.772 300.022 441.772 248.858C441.772 197.694 421.447 148.626 385.269 112.448C349.09 76.2696 300.022 55.9449 248.858 55.9449C197.694 55.9449 148.626 76.2696 112.448 112.448C76.2696 148.626 55.9449 197.694 55.9449 248.858C55.9449 300.022 76.2696 349.09 112.448 385.269C148.626 421.447 197.694 441.772 248.858 441.772ZM224.744 267.957C212.05 262.417 201.651 252.675 195.296 240.369C188.94 228.064 187.015 213.945 189.844 200.387C192.674 186.829 200.086 174.659 210.833 165.924C221.581 157.188 235.008 152.419 248.858 152.419C262.708 152.419 276.136 157.188 286.883 165.924C297.631 174.659 305.042 186.829 307.872 200.387C310.702 213.945 308.777 228.064 302.421 240.369C296.065 252.675 285.666 262.417 272.972 267.957V345.315H224.744V267.957Z" fill="#F919A0"/>
<path d="M241.142 482.283C107.959 482.283 0 374.324 0 241.142C0 107.959 107.959 0 241.142 0C374.324 0 482.283 107.959 482.283 241.142C482.283 374.324 374.324 482.283 241.142 482.283ZM241.142 434.055C292.306 434.055 341.374 413.73 377.552 377.552C413.73 341.374 434.055 292.306 434.055 241.142C434.055 189.978 413.73 140.91 377.552 104.731C341.374 68.5531 292.306 48.2283 241.142 48.2283C189.978 48.2283 140.91 68.5531 104.731 104.731C68.5531 140.91 48.2283 189.978 48.2283 241.142C48.2283 292.306 68.5531 341.374 104.731 377.552C140.91 413.73 189.978 434.055 241.142 434.055ZM217.028 260.24C204.334 254.7 193.935 244.958 187.579 232.653C181.223 220.347 179.298 206.229 182.128 192.671C184.958 179.113 192.369 166.943 203.117 158.207C213.864 149.471 227.292 144.702 241.142 144.702C254.992 144.702 268.419 149.471 279.167 158.207C289.914 166.943 297.326 179.113 300.156 192.671C302.985 206.229 301.06 220.347 294.704 232.653C288.349 244.958 277.95 254.7 265.256 260.24V337.598H217.028V260.24Z" fill="#6518F6"/>
</svg>
