<svg width="70" height="60" viewBox="0 0 70 60" fill="none" xmlns="http://www.w3.org/2000/svg">
<path d="M57 25H28C25.24 25 25 27.235 25 30C25 32.765 25.24 35 28 35H57C59.76 35 60 32.765 60 30C60 27.235 59.76 25 57 25ZM67 50H28C25.24 50 25 52.235 25 55C25 57.765 25.24 60 28 60H67C69.76 60 70 57.765 70 55C70 52.235 69.76 50 67 50ZM28 10H67C69.76 10 70 7.765 70 5C70 2.235 69.76 0 67 0H28C25.24 0 25 2.235 25 5C25 7.765 25.24 10 28 10ZM12 25H3C0.24 25 0 27.235 0 30C0 32.765 0.24 35 3 35H12C14.76 35 15 32.765 15 30C15 27.235 14.76 25 12 25ZM12 50H3C0.24 50 0 52.235 0 55C0 57.765 0.24 60 3 60H12C14.76 60 15 57.765 15 55C15 52.235 14.76 50 12 50ZM12 0H3C0.24 0 0 2.235 0 5C0 7.765 0.24 10 3 10H12C14.76 10 15 7.765 15 5C15 2.235 14.76 0 12 0Z" fill="white"/>
</svg>
