<svg width="64" height="64" viewBox="0 0 64 64" fill="none" xmlns="http://www.w3.org/2000/svg">
<path d="M38.7911 44.7644L33.7778 49.7778L16 32L33.7778 14.2222L38.7911 19.2356L29.6178 28.4444H64V35.5556H29.6178L38.7911 44.7644ZM7.11111 0H56.8889C58.7749 0 60.5836 0.749204 61.9172 2.0828C63.2508 3.41639 64 5.22513 64 7.11111V21.3333H56.8889V7.11111H7.11111V56.8889H56.8889V42.6667H64V56.8889C64 58.7749 63.2508 60.5836 61.9172 61.9172C60.5836 63.2508 58.7749 64 56.8889 64H7.11111C3.2 64 0 60.8 0 56.8889V7.11111C0 3.2 3.2 0 7.11111 0Z" fill="white"/>
</svg>
