<svg width="24" height="48" viewBox="0 0 24 48" fill="none" xmlns="http://www.w3.org/2000/svg">
<path d="M3.98215 47.9998C4.49446 48.0015 5.00064 47.8885 5.46351 47.669C5.92638 47.4495 6.33417 47.1291 6.65692 46.7313L23.2199 26.1618C23.7243 25.5484 24 24.779 24 23.9849C24 23.1908 23.7243 22.4214 23.2199 21.8079L6.07396 1.23846C5.49189 0.538357 4.65548 0.0980864 3.74871 0.0145066C2.84194 -0.0690731 1.9391 0.210884 1.2388 0.79279C0.538504 1.3747 0.098114 2.21088 0.0145111 3.1174C-0.0690918 4.02392 0.210941 4.92651 0.793007 5.62662L16.1215 24.002L1.30739 42.3774C0.888054 42.8807 0.621685 43.4934 0.539799 44.1432C0.457911 44.7931 0.563931 45.4527 0.845316 46.0442C1.1267 46.6357 1.57167 47.1342 2.12758 47.4807C2.68349 47.8273 3.32706 48.0074 3.98215 47.9998Z" fill="white"/>
</svg>
